<svg xmlns="http://www.w3.org/2000/svg" version="1.1" xmlns:xlink="http://www.w3.org/1999/xlink" xmlns:svgjs="http://svgjs.com/svgjs" width="1440" height="560" preserveAspectRatio="none" viewBox="0 0 1440 560"><g mask="url(&quot;#SvgjsMask1086&quot;)" fill="none"><rect width="1440" height="560" x="0" y="0" fill="#0e2a47"></rect><path d="M36.78 -51.5L101.73 -14L101.73 61L36.78 98.5L-28.17 61L-28.17 -14zM166.69 398.5L231.64 436L231.64 511L166.69 548.5L101.73 511L101.73 436zM361.55 61L426.5 98.5L426.5 173.5L361.55 211L296.6 173.5L296.6 98.5zM361.55 286L426.5 323.5L426.5 398.5L361.55 436L296.6 398.5L296.6 323.5zM426.5 -51.5L491.46 -14L491.46 61L426.5 98.5L361.55 61L361.55 -14zM491.46 61L556.41 98.5L556.41 173.5L491.46 211L426.5 173.5L426.5 98.5zM621.36 286L686.32 323.5L686.32 398.5L621.36 436L556.41 398.5L556.41 323.5zM686.32 -51.5L751.27 -14L751.27 61L686.32 98.5L621.36 61L621.36 -14zM881.18 286L946.13 323.5L946.13 398.5L881.18 436L816.22 398.5L816.22 323.5zM816.22 398.5L881.18 436L881.18 511L816.22 548.5L751.27 511L751.27 436zM946.13 173.5L1011.09 211L1011.09 286L946.13 323.5L881.18 286L881.18 211zM1076.04 -51.5L1140.99 -14L1140.99 61L1076.04 98.5L1011.09 61L1011.09 -14zM1270.9 511L1335.85 548.5L1335.85 623.5L1270.9 661L1205.95 623.5L1205.95 548.5zM1400.81 61L1465.76 98.5L1465.76 173.5L1400.81 211L1335.86 173.5L1335.86 98.5zM1335.86 173.5L1400.81 211L1400.81 286L1335.86 323.5L1270.9 286L1270.9 211zM1465.76 -51.5L1530.72 -14L1530.72 61L1465.76 98.5L1400.81 61L1400.81 -14zM1530.72 61L1595.67 98.5L1595.67 173.5L1530.72 211L1465.76 173.5L1465.76 98.5z" stroke="#03305d" stroke-width="2"></path><path d="M29.28 -51.5 a7.5 7.5 0 1 0 15 0 a7.5 7.5 0 1 0 -15 0zM94.23 -14 a7.5 7.5 0 1 0 15 0 a7.5 7.5 0 1 0 -15 0zM94.23 61 a7.5 7.5 0 1 0 15 0 a7.5 7.5 0 1 0 -15 0zM29.28 98.5 a7.5 7.5 0 1 0 15 0 a7.5 7.5 0 1 0 -15 0zM-35.67 61 a7.5 7.5 0 1 0 15 0 a7.5 7.5 0 1 0 -15 0zM-35.67 -14 a7.5 7.5 0 1 0 15 0 a7.5 7.5 0 1 0 -15 0zM159.19 398.5 a7.5 7.5 0 1 0 15 0 a7.5 7.5 0 1 0 -15 0zM224.14 436 a7.5 7.5 0 1 0 15 0 a7.5 7.5 0 1 0 -15 0zM224.14 511 a7.5 7.5 0 1 0 15 0 a7.5 7.5 0 1 0 -15 0zM159.19 548.5 a7.5 7.5 0 1 0 15 0 a7.5 7.5 0 1 0 -15 0zM94.23 511 a7.5 7.5 0 1 0 15 0 a7.5 7.5 0 1 0 -15 0zM94.23 436 a7.5 7.5 0 1 0 15 0 a7.5 7.5 0 1 0 -15 0zM354.05 61 a7.5 7.5 0 1 0 15 0 a7.5 7.5 0 1 0 -15 0zM419 98.5 a7.5 7.5 0 1 0 15 0 a7.5 7.5 0 1 0 -15 0zM419 173.5 a7.5 7.5 0 1 0 15 0 a7.5 7.5 0 1 0 -15 0zM354.05 211 a7.5 7.5 0 1 0 15 0 a7.5 7.5 0 1 0 -15 0zM289.1 173.5 a7.5 7.5 0 1 0 15 0 a7.5 7.5 0 1 0 -15 0zM289.1 98.5 a7.5 7.5 0 1 0 15 0 a7.5 7.5 0 1 0 -15 0zM354.05 286 a7.5 7.5 0 1 0 15 0 a7.5 7.5 0 1 0 -15 0zM419 323.5 a7.5 7.5 0 1 0 15 0 a7.5 7.5 0 1 0 -15 0zM419 398.5 a7.5 7.5 0 1 0 15 0 a7.5 7.5 0 1 0 -15 0zM354.05 436 a7.5 7.5 0 1 0 15 0 a7.5 7.5 0 1 0 -15 0zM289.1 398.5 a7.5 7.5 0 1 0 15 0 a7.5 7.5 0 1 0 -15 0zM289.1 323.5 a7.5 7.5 0 1 0 15 0 a7.5 7.5 0 1 0 -15 0zM419 -51.5 a7.5 7.5 0 1 0 15 0 a7.5 7.5 0 1 0 -15 0zM483.96 -14 a7.5 7.5 0 1 0 15 0 a7.5 7.5 0 1 0 -15 0zM483.96 61 a7.5 7.5 0 1 0 15 0 a7.5 7.5 0 1 0 -15 0zM354.05 -14 a7.5 7.5 0 1 0 15 0 a7.5 7.5 0 1 0 -15 0zM548.91 98.5 a7.5 7.5 0 1 0 15 0 a7.5 7.5 0 1 0 -15 0zM548.91 173.5 a7.5 7.5 0 1 0 15 0 a7.5 7.5 0 1 0 -15 0zM483.96 211 a7.5 7.5 0 1 0 15 0 a7.5 7.5 0 1 0 -15 0zM613.86 286 a7.5 7.5 0 1 0 15 0 a7.5 7.5 0 1 0 -15 0zM678.82 323.5 a7.5 7.5 0 1 0 15 0 a7.5 7.5 0 1 0 -15 0zM678.82 398.5 a7.5 7.5 0 1 0 15 0 a7.5 7.5 0 1 0 -15 0zM613.86 436 a7.5 7.5 0 1 0 15 0 a7.5 7.5 0 1 0 -15 0zM548.91 398.5 a7.5 7.5 0 1 0 15 0 a7.5 7.5 0 1 0 -15 0zM548.91 323.5 a7.5 7.5 0 1 0 15 0 a7.5 7.5 0 1 0 -15 0zM678.82 -51.5 a7.5 7.5 0 1 0 15 0 a7.5 7.5 0 1 0 -15 0zM743.77 -14 a7.5 7.5 0 1 0 15 0 a7.5 7.5 0 1 0 -15 0zM743.77 61 a7.5 7.5 0 1 0 15 0 a7.5 7.5 0 1 0 -15 0zM678.82 98.5 a7.5 7.5 0 1 0 15 0 a7.5 7.5 0 1 0 -15 0zM613.86 61 a7.5 7.5 0 1 0 15 0 a7.5 7.5 0 1 0 -15 0zM613.86 -14 a7.5 7.5 0 1 0 15 0 a7.5 7.5 0 1 0 -15 0zM873.68 286 a7.5 7.5 0 1 0 15 0 a7.5 7.5 0 1 0 -15 0zM938.63 323.5 a7.5 7.5 0 1 0 15 0 a7.5 7.5 0 1 0 -15 0zM938.63 398.5 a7.5 7.5 0 1 0 15 0 a7.5 7.5 0 1 0 -15 0zM873.68 436 a7.5 7.5 0 1 0 15 0 a7.5 7.5 0 1 0 -15 0zM808.72 398.5 a7.5 7.5 0 1 0 15 0 a7.5 7.5 0 1 0 -15 0zM808.72 323.5 a7.5 7.5 0 1 0 15 0 a7.5 7.5 0 1 0 -15 0zM873.68 511 a7.5 7.5 0 1 0 15 0 a7.5 7.5 0 1 0 -15 0zM808.72 548.5 a7.5 7.5 0 1 0 15 0 a7.5 7.5 0 1 0 -15 0zM743.77 511 a7.5 7.5 0 1 0 15 0 a7.5 7.5 0 1 0 -15 0zM743.77 436 a7.5 7.5 0 1 0 15 0 a7.5 7.5 0 1 0 -15 0zM938.63 173.5 a7.5 7.5 0 1 0 15 0 a7.5 7.5 0 1 0 -15 0zM1003.59 211 a7.5 7.5 0 1 0 15 0 a7.5 7.5 0 1 0 -15 0zM1003.59 286 a7.5 7.5 0 1 0 15 0 a7.5 7.5 0 1 0 -15 0zM873.68 211 a7.5 7.5 0 1 0 15 0 a7.5 7.5 0 1 0 -15 0zM1068.54 -51.5 a7.5 7.5 0 1 0 15 0 a7.5 7.5 0 1 0 -15 0zM1133.49 -14 a7.5 7.5 0 1 0 15 0 a7.5 7.5 0 1 0 -15 0zM1133.49 61 a7.5 7.5 0 1 0 15 0 a7.5 7.5 0 1 0 -15 0zM1068.54 98.5 a7.5 7.5 0 1 0 15 0 a7.5 7.5 0 1 0 -15 0zM1003.59 61 a7.5 7.5 0 1 0 15 0 a7.5 7.5 0 1 0 -15 0zM1003.59 -14 a7.5 7.5 0 1 0 15 0 a7.5 7.5 0 1 0 -15 0zM1263.4 511 a7.5 7.5 0 1 0 15 0 a7.5 7.5 0 1 0 -15 0zM1328.35 548.5 a7.5 7.5 0 1 0 15 0 a7.5 7.5 0 1 0 -15 0zM1328.35 623.5 a7.5 7.5 0 1 0 15 0 a7.5 7.5 0 1 0 -15 0zM1263.4 661 a7.5 7.5 0 1 0 15 0 a7.5 7.5 0 1 0 -15 0zM1198.45 623.5 a7.5 7.5 0 1 0 15 0 a7.5 7.5 0 1 0 -15 0zM1198.45 548.5 a7.5 7.5 0 1 0 15 0 a7.5 7.5 0 1 0 -15 0zM1393.31 61 a7.5 7.5 0 1 0 15 0 a7.5 7.5 0 1 0 -15 0zM1458.26 98.5 a7.5 7.5 0 1 0 15 0 a7.5 7.5 0 1 0 -15 0zM1458.26 173.5 a7.5 7.5 0 1 0 15 0 a7.5 7.5 0 1 0 -15 0zM1393.31 211 a7.5 7.5 0 1 0 15 0 a7.5 7.5 0 1 0 -15 0zM1328.36 173.5 a7.5 7.5 0 1 0 15 0 a7.5 7.5 0 1 0 -15 0zM1328.36 98.5 a7.5 7.5 0 1 0 15 0 a7.5 7.5 0 1 0 -15 0zM1393.31 286 a7.5 7.5 0 1 0 15 0 a7.5 7.5 0 1 0 -15 0zM1328.36 323.5 a7.5 7.5 0 1 0 15 0 a7.5 7.5 0 1 0 -15 0zM1263.4 286 a7.5 7.5 0 1 0 15 0 a7.5 7.5 0 1 0 -15 0zM1263.4 211 a7.5 7.5 0 1 0 15 0 a7.5 7.5 0 1 0 -15 0zM1458.26 -51.5 a7.5 7.5 0 1 0 15 0 a7.5 7.5 0 1 0 -15 0zM1523.22 -14 a7.5 7.5 0 1 0 15 0 a7.5 7.5 0 1 0 -15 0zM1523.22 61 a7.5 7.5 0 1 0 15 0 a7.5 7.5 0 1 0 -15 0zM1393.31 -14 a7.5 7.5 0 1 0 15 0 a7.5 7.5 0 1 0 -15 0zM1588.17 98.5 a7.5 7.5 0 1 0 15 0 a7.5 7.5 0 1 0 -15 0zM1588.17 173.5 a7.5 7.5 0 1 0 15 0 a7.5 7.5 0 1 0 -15 0zM1523.22 211 a7.5 7.5 0 1 0 15 0 a7.5 7.5 0 1 0 -15 0z" fill="#03305d"></path><path d="M134.89 520.2L169.53 540.2L169.53 580.2L134.89 600.2L100.24 580.2L100.24 540.2zM273.45 40.2L308.1 60.2L308.1 100.2L273.45 120.2L238.81 100.2L238.81 60.2zM238.81 220.2L273.45 240.2L273.45 280.2L238.81 300.2L204.17 280.2L204.17 240.2zM342.74 40.2L377.38 60.2L377.38 100.2L342.74 120.2L308.1 100.2L308.1 60.2zM342.74 400.2L377.38 420.2L377.38 460.2L342.74 480.2L308.1 460.2L308.1 420.2zM377.38 -19.8L412.02 0.2L412.02 40.2L377.38 60.2L342.74 40.2L342.74 0.2zM412.02 40.2L446.66 60.2L446.66 100.2L412.02 120.2L377.38 100.2L377.38 60.2zM412.02 280.2L446.66 300.2L446.66 340.2L412.02 360.2L377.38 340.2L377.38 300.2zM481.31 280.2L515.95 300.2L515.95 340.2L481.31 360.2L446.66 340.2L446.66 300.2zM481.31 520.2L515.95 540.2L515.95 580.2L481.31 600.2L446.66 580.2L446.66 540.2zM550.59 520.2L585.23 540.2L585.23 580.2L550.59 600.2L515.95 580.2L515.95 540.2zM619.87 160.2L654.52 180.2L654.52 220.2L619.87 240.2L585.23 220.2L585.23 180.2zM619.87 280.2L654.52 300.2L654.52 340.2L619.87 360.2L585.23 340.2L585.23 300.2zM585.23 340.2L619.87 360.2L619.87 400.2L585.23 420.2L550.59 400.2L550.59 360.2zM619.87 400.2L654.52 420.2L654.52 460.2L619.87 480.2L585.23 460.2L585.23 420.2zM619.87 520.2L654.52 540.2L654.52 580.2L619.87 600.2L585.23 580.2L585.23 540.2zM654.52 -19.8L689.16 0.2L689.16 40.2L654.52 60.2L619.87 40.2L619.87 0.2zM689.16 400.2L723.8 420.2L723.8 460.2L689.16 480.2L654.52 460.2L654.52 420.2zM689.16 520.2L723.8 540.2L723.8 580.2L689.16 600.2L654.52 580.2L654.52 540.2zM758.44 160.2L793.08 180.2L793.08 220.2L758.44 240.2L723.8 220.2L723.8 180.2zM793.08 340.2L827.73 360.2L827.73 400.2L793.08 420.2L758.44 400.2L758.44 360.2zM827.73 520.2L862.37 540.2L862.37 580.2L827.73 600.2L793.08 580.2L793.08 540.2zM897.01 40.2L931.65 60.2L931.65 100.2L897.01 120.2L862.37 100.2L862.37 60.2zM966.29 40.2L1000.94 60.2L1000.94 100.2L966.29 120.2L931.65 100.2L931.65 60.2zM931.65 220.2L966.29 240.2L966.29 280.2L931.65 300.2L897.01 280.2L897.01 240.2zM1000.94 220.2L1035.58 240.2L1035.58 280.2L1000.94 300.2L966.29 280.2L966.29 240.2zM1035.58 520.2L1070.22 540.2L1070.22 580.2L1035.58 600.2L1000.94 580.2L1000.94 540.2zM1070.22 -19.8L1104.86 0.2L1104.86 40.2L1070.22 60.2L1035.58 40.2L1035.58 0.2zM1139.5 220.2L1174.15 240.2L1174.15 280.2L1139.5 300.2L1104.86 280.2L1104.86 240.2zM1139.5 340.2L1174.15 360.2L1174.15 400.2L1139.5 420.2L1104.86 400.2L1104.86 360.2zM1208.79 100.2L1243.43 120.2L1243.43 160.2L1208.79 180.2L1174.15 160.2L1174.15 120.2zM1347.36 100.2L1382 120.2L1382 160.2L1347.36 180.2L1312.71 160.2L1312.71 120.2zM1347.36 340.2L1382 360.2L1382 400.2L1347.36 420.2L1312.71 400.2L1312.71 360.2zM1416.64 -19.8L1451.28 0.2L1451.28 40.2L1416.64 60.2L1382 40.2L1382 0.2zM1416.64 460.2L1451.28 480.2L1451.28 520.2L1416.64 540.2L1382 520.2L1382 480.2zM1451.28 520.2L1485.92 540.2L1485.92 580.2L1451.28 600.2L1416.64 580.2L1416.64 540.2z" stroke="rgba(6, 80, 156, 0.93)" stroke-width="2"></path></g><defs><mask id="SvgjsMask1086"><rect width="1440" height="560" fill="#ffffff"></rect></mask></defs></svg>